HIERARCHY
ROOT pelvis
{
  OFFSET 0 100 0
  CHANNELS 6 Xposition Yposition Zposition Zrotation Xrotation Yrotation
  JOINT pelvis_right_femur
  {
    OFFSET -10.78128 -3.44521 -0.5502486
    CHANNELS 3 Zrotation Xrotation Yrotation
    JOINT right_femur_tibia
    {
      OFFSET -0.8047443 -44.0398 -0.1307829
      CHANNELS 3 Zrotation Xrotation Yrotation
      JOINT right_tibia_foot
      {
        OFFSET 3.006224 -47.83518 -5
        CHANNELS 3 Zrotation Xrotation Yrotation
        End Site
        {
          OFFSET 0 -5 15
        }
      }
    }
  }
  JOINT pelvis_left_femur
  {
    OFFSET 10.78128 -3.44521 -0.5502486
    CHANNELS 3 Zrotation Xrotation Yrotation
    JOINT left_femur_tibia
    {
      OFFSET 0.8047443 -44.0398 -0.1307829
      CHANNELS 3 Zrotation Xrotation Yrotation
      JOINT left_tibia_foot
      {
        OFFSET -4.370144 -48.10324 -4.275266
        CHANNELS 3 Zrotation Xrotation Yrotation
        End Site
        {
          OFFSET 0 -5 15
        }
      }
    }
  }
  JOINT pelvis_spine1
  {
    OFFSET 0 6.468898 -3.129235
    CHANNELS 3 Zrotation Xrotation Yrotation
    JOINT spine1
    {
      OFFSET 0 23.15396 4.99043
      CHANNELS 3 Zrotation Xrotation Yrotation
      JOINT spine2
      {
        OFFSET 0 20.79997 -5.064912
        CHANNELS 3 Zrotation Xrotation Yrotation
        JOINT neck
        {
          OFFSET 0 14.38658 9.616178
          CHANNELS 3 Zrotation Xrotation Yrotation
          End Site
          {
            OFFSET 0 20 0
          }
        }
      }
      JOINT right_manubrium
      {
        OFFSET -5.722621 16.35077 3.967754
        CHANNELS 3 Zrotation Xrotation Yrotation
        JOINT right_clavicle
        {
          OFFSET -13.16364 1.694482 -4.693211
          CHANNELS 3 Zrotation Xrotation Yrotation
          JOINT right_humerus
          {
            OFFSET -28.5034 -0.3100689 -2.792744
            CHANNELS 3 Zrotation Xrotation Yrotation
            JOINT right_radius
            {
              OFFSET -25.15693 0.02248979 -1.271978
              CHANNELS 3 Zrotation Xrotation Yrotation
              End Site
              {
                OFFSET -15 0 0
              }
            }
          }
        }
      }
      JOINT left_manubrium
      {
        OFFSET 5.722621 16.35077 3.967754
        CHANNELS 3 Zrotation Xrotation Yrotation
        JOINT left_clavicle
        {
          OFFSET 13.16364 1.694482 -4.693211
          CHANNELS 3 Zrotation Xrotation Yrotation
          JOINT left_humerus
          {
            OFFSET 29.39168 -1.063119 -2.237045
            CHANNELS 3 Zrotation Xrotation Yrotation
            JOINT left_radius
            {
              OFFSET 24.59957 -0.9528479 0.9047498
              CHANNELS 3 Zrotation Xrotation Yrotation
              End Site
              {
                OFFSET 15 -0 -0
              }
            }
          }
        }
      }
    }
  }
}
MOTION
Frames: 19
Frame Time: 0.0416666666667
-979.339 110.1022 2716.16 -5.985996 -4.020174 -60.6575 5.209584 10.70281 3.303501 -0 8.615594 -0 -4.843372 -11.099 -2.350481 1.72978 -22.03183 -2.662938 -0 36.85264 -0 -4.100384 -5.95128 18.50396 1.955883 -2.374284 9.243347 -0.1351172 16.06508 -5.771928 2.77558 18.87337 -1.50856 -3.503339 -20.04346 4.592919 -7.57954 -32.68652 10.29809 95.68845 24.25315 -9.489526 -0 0 25.98417 -17.04406 14.02407 14.45678 -3.253668 -20.81976 -7.813135 -89.55232 12.88048 38.46479 0 0 -23.47775 -1.913627 9.849865 18.61794
-984.0165 109.1531 2719.326 -6.128251 -3.28612 -61.27084 5.482268 13.25216 3.011307 -0 9.538964 -0 -5.067324 -13.41878 -1.961713 3.027034 -23.50555 -2.215491 -0 26.24571 -0 -2.948891 -5.403419 19.00806 1.978632 -2.717554 9.414371 -0.2923434 16.50668 -5.509152 2.806447 18.64693 -1.676897 -3.566993 -19.72247 4.506104 -6.919359 -33.36093 10.37181 94.45686 23.05614 -8.297288 -0 0 27.87518 -17.80542 15.3779 15.39438 -3.241252 -20.52278 -7.905955 -91.04417 13.07162 40.26896 0 0 -20.93443 -2.607068 9.811205 19.83984
-988.8825 108.029 2722.728 -6.33691 -2.864599 -61.93117 5.283774 15.74374 2.594132 -0 11.33437 -0 -4.967149 -14.83454 -1.599608 3.269551 -23.67578 -2.520067 -0 18.83748 -0 -2.3707 -4.94935 19.23109 1.995505 -2.991435 9.554679 -0.4358865 16.85222 -5.271344 2.836541 18.48613 -1.793407 -3.613275 -19.4989 4.461639 -6.399937 -33.87132 10.40968 93.56665 22.07105 -7.448174 -0 0 29.30289 -18.39068 16.38338 16.13965 -3.24227 -20.27111 -8.015215 -92.30629 13.29352 41.73365 0 0 -18.99373 -3.255062 9.685825 21.01049
-993.9963 107.0084 2726.39 -6.539909 -2.963175 -62.6045 4.463935 17.97989 2.084464 -0 14.40957 -0 -4.723699 -14.63248 -1.273342 2.299989 -22.80865 -3.600927 -0 15.30986 -0 -2.342875 -5.030176 19.267 2.007806 -3.181203 9.652236 -0.5534746 17.08399 -5.07848 2.866251 18.40719 -1.856865 -3.644372 -19.3862 4.462208 -6.061166 -34.17782 10.40161 93.06478 21.35917 -7.005721 -0 0 30.16189 -18.7415 16.98593 16.6136 -3.257618 -20.08388 -8.140523 -93.26208 13.56723 42.76607 0 0 -17.76682 -3.82292 9.491703 22.05915
-999.344 106.3423 2730.27 -6.744415 -3.532097 -63.17518 3.224012 19.41796 1.564273 -0 19.201 -0 -4.634348 -12.39185 -1.060803 0.4600214 -20.96683 -5.158053 -0 14.9755 -0 -2.475534 -5.717592 19.25943 2.015184 -3.281067 9.698878 -0.633985 17.19552 -4.947724 2.895179 18.41302 -1.87183 -3.663269 -19.38157 4.504235 -5.916062 -34.2667 10.34745 92.94935 20.95742 -6.977948 -0 0 30.41954 -18.82941 17.18091 16.77791 -3.286064 -19.97475 -8.275836 -93.85389 13.89542 43.31071 0 0 -17.2945 -4.270855 9.261368 22.90887
-1004.832 106.2002 2734.255 -7.01842 -4.349788 -63.50711 1.955462 19.4687 1.098603 -0 25.73769 -0 -4.9048 -8.301927 -1.043589 -1.651624 -18.12782 -6.764693 -0 16.41481 -0 -2.373852 -6.808725 19.30448 2.015965 -3.293195 9.691105 -0.6694713 17.19025 -4.891072 2.92196 18.49404 -1.84547 -3.671965 -19.46902 4.579354 -5.952962 -34.14746 10.25684 93.18253 20.8777 -7.327028 -0 0 30.10588 -18.65865 17.0025 16.63869 -3.324783 -19.95267 -8.411526 -94.04334 14.25907 43.34662 0 0 -17.56367 -4.560474 9.03362 23.48989
-1010.307 106.6292 2738.2 -7.413733 -5.143558 -63.50887 1.020602 17.73874 0.7124213 -0 33.39852 -0 -5.539586 -3.171829 -1.242118 -3.471752 -14.35761 -8.07904 -0 18.1748 -0 -1.912298 -8.039199 19.38636 2.008241 -3.224693 9.630343 -0.6564969 17.07805 -4.913778 2.944368 18.6326 -1.784579 -3.670549 -19.62628 4.676805 -6.145488 -33.84585 10.14543 93.70942 21.11196 -7.987515 -0 0 29.29177 -18.25986 16.50459 16.23653 -3.370195 -20.02163 -8.53643 -93.8128 14.62019 42.88254 0 0 -18.52561 -4.661781 8.843482 23.75069
-1015.598 107.5391 2741.971 -7.903748 -5.688771 -63.16854 0.5986185 14.12756 0.4105902 -0 40.95894 -0 -6.371442 1.849749 -1.622859 -4.66543 -9.896755 -8.954014 -0 19.22979 -0 -1.254105 -9.251408 19.37802 1.99085 -3.084115 9.522594 -0.5963884 16.87115 -5.013931 2.959634 18.80868 -1.693849 -3.657326 -19.83217 4.785849 -6.464042 -33.39618 10.02992 94.47408 21.63927 -8.88418 -0 0 28.06703 -17.67933 15.74285 15.63034 -3.418631 -20.17941 -8.638817 -93.16757 14.92837 41.95248 0 0 -20.10814 -4.557417 8.714251 23.66253
-1020.568 108.7188 2745.48 -8.367094 -5.859839 -62.55208 0.650398 8.811541 0.1839113 -0 46.83665 -0 -7.148281 5.658335 -2.133967 -5.16788 -5.138436 -9.413939 -0 19.12206 -0 -0.6827628 -10.45552 19.10985 1.963808 -2.879105 9.377611 -0.4946576 16.5813 -5.183017 2.964843 19.00435 -1.575669 -3.629588 -20.07119 4.897462 -6.883459 -32.83562 9.924264 95.42805 22.43094 -9.944065 -0 0 26.52577 -16.9696 14.76438 14.88312 -3.466569 -20.4162 -8.706641 -92.13824 15.12938 40.61303 0 0 -22.22 -4.244084 8.653699 23.21906
-1025.168 109.8777 2748.708 -8.610235 -5.639032 -61.77694 0.9733708 2.191691 -0.018861 -0 49.43089 -0 -7.617813 7.529354 -2.709341 -5.129371 -0.5386891 -9.55733 -0 17.87469 -0 -0.4017259 -11.79468 18.4672 1.928277 -2.615945 9.207793 -0.3600707 16.21899 -5.406953 2.957406 19.20616 -1.431083 -3.584639 -20.33469 5.005056 -7.38497 -32.20105 9.837867 96.53128 23.45154 -11.10184 -0 0 24.76075 -16.18389 13.60651 14.05374 -3.510585 -20.714 -8.728003 -90.78299 15.17471 38.94313 0 0 -24.74878 -3.733061 8.654293 22.43545
-1029.458 110.7073 2751.699 -8.418819 -5.104831 -60.9753 1.286317 -5.14942 -0.3182299 -0 47.53782 -0 -7.607259 7.357462 -3.24544 -4.833377 3.509534 -9.468261 -0 15.81979 -0 -0.4179392 -13.45566 17.46482 1.88631 -2.300972 9.026922 -0.2036534 15.79495 -5.667329 2.935606 19.40545 -1.261481 -3.520896 -20.619 5.10446 -7.953457 -31.52814 9.775357 97.74743 24.65611 -12.30024 -0 0 22.86401 -15.37393 12.30279 13.19421 -3.547324 -21.04725 -8.692653 -89.18859 15.03196 37.04442 0 0 -27.55635 -3.051314 8.69641 21.34968
-1033.601 110.9534 2754.552 -7.6386 -4.408689 -60.25678 1.323865 -12.48834 -0.8805753 -0 40.85033 -0 -7.090273 5.759174 -3.609612 -4.601985 6.81291 -9.185094 -0 13.44719 -0 -0.5611405 -15.55497 16.26272 1.84056 -1.943284 8.848691 -0.0376394 15.32315 -5.942988 2.899235 19.59735 -1.07052 -3.438985 -20.92195 5.193464 -8.572124 -30.85145 9.737152 99.03636 25.98554 -13.48799 -0 0 20.92971 -14.58866 10.89313 12.34995 -3.573789 -21.3853 -8.594856 -87.46737 14.69535 35.03912 0 0 -30.47741 -2.242832 8.753907 20.02601
-1037.824 110.4886 2757.39 -6.276614 -3.726872 -59.67577 0.9625729 -19.03886 -1.806539 -0 30.40544 -0 -6.218292 3.914247 -3.723232 -4.671597 9.464207 -8.729935 -0 11.32605 -0 -0.6428994 -18.00994 15.09828 1.794018 -1.557746 8.685073 0.1257301 14.82399 -6.212257 2.850174 19.77875 -0.8657263 -3.342611 -21.23844 5.27114 -9.216998 -30.20446 9.720388 100.3467 27.36358 -14.61711 -0 0 19.0554 -13.87212 9.433969 11.56056 -3.587948 -21.69703 -8.43705 -85.74738 14.19287 33.06166 0 0 -33.32695 -1.367941 8.801585 18.55682
-1042.349 109.3601 2760.327 -4.570052 -3.180289 -59.21362 0.3647437 -24.10239 -2.954656 -0 18.6089 -0 -5.290874 3.039532 -3.6606 -5.06762 11.77982 -8.156113 -0 10.09938 -0 -0.6739605 -20.42955 14.13668 1.749828 -1.166802 8.544882 0.2754958 14.32612 -6.455806 2.79262 19.94611 -0.6590655 -3.238779 -21.55678 5.337006 -9.853916 -29.61876 9.720114 101.6117 28.69891 -15.64085 -0 0 17.33917 -13.2603 8.003738 10.85997 -3.589356 -21.95723 -8.232604 -84.15561 13.58527 31.24363 0 0 -35.91906 -0.4980005 8.823121 17.05783
-1047.341 107.7944 2763.439 -2.940703 -2.766218 -58.79952 0.000899867 -27.25866 -3.863373 -0 8.485529 -0 -4.620712 3.691511 -3.627069 -5.570841 14.0453 -7.557082 -0 10.47869 -0 -0.935784 -22.12898 13.34221 1.711178 -0.7995641 8.433127 0.4030726 13.86517 -6.659384 2.732662 20.09384 -0.4660318 -3.137047 -21.85737 5.390173 -10.44019 -29.12257 9.730711 102.7512 29.89408 -16.51317 -0 0 15.87293 -12.77822 6.699287 10.27558 -3.57932 -22.15205 -8.005411 -82.79922 12.95387 29.69684 0 0 -38.09188 0.2949317 8.816541 15.65392
-1052.871 106.1457 2766.739 -1.817937 -2.379205 -58.37953 0.3901119 -28.46444 -3.972165 -0 2.364278 -0 -4.33755 5.434685 -3.794896 -5.838193 16.21056 -7.029206 -0 13.1253 -0 -1.730853 -22.36136 12.55749 1.681201 -0.4876108 8.35153 0.5028011 13.47892 -6.815232 2.677131 20.21398 -0.3033831 -3.047906 -22.11487 5.428713 -10.93113 -28.73915 9.747293 103.681 30.85939 -17.19025 -0 0 14.73432 -12.43953 5.62275 9.827442 -3.56041 -22.28058 -7.785114 -81.75276 12.38063 28.50178 0 0 -39.72719 0.9501104 8.794239 14.45856
-1058.903 104.803 2770.196 -1.443452 -1.92573 -57.98738 1.703524 -27.95518 -3.026429 -0 0.8688297 -0 -4.331535 7.204898 -4.173116 -5.614971 17.80289 -6.625895 -0 18.40205 -0 -2.998585 -20.69168 11.7735 1.66275 -0.2589236 8.299949 0.571819 13.20064 -6.921394 2.632123 20.29766 -0.186358 -2.980848 -22.30352 5.449545 -11.28861 -28.48599 9.766683 104.3264 31.52642 -17.63336 -0 0 13.98136 -12.24897 4.863774 9.528424 -3.535563 -22.351 -7.599453 -81.05638 11.92924 27.70637 0 0 -40.75466 1.426472 8.77728 13.55521
-1065.305 104.0847 2773.755 -1.797751 -1.429366 -57.7522 3.621104 -26.04091 -1.262054 -0 2.930784 -0 -4.400759 8.02516 -4.626985 -4.891555 18.15664 -6.332468 -0 26.15066 -0 -4.293719 -17.28204 11.22693 1.657997 -0.1327618 8.277963 0.6093892 13.05349 -6.979341 2.601795 20.33702 -0.1264126 -2.942797 -22.40269 5.448902 -11.48723 -28.37509 9.787797 104.6328 31.85542 -17.81176 -0 0 13.65188 -12.20672 4.485389 9.38598 -3.507307 -22.37358 -7.467348 -80.7237 11.63525 27.33352 0 0 -41.14137 1.704195 8.787159 12.98882
-1071.874 104.155 2777.353 -2.667509 -1.041689 -57.83608 5.540245 -22.96434 0.7701466 -0 6.627523 -0 -4.409322 7.472959 -4.979076 -3.904239 16.75049 -6.081543 -0 35.653 -0 -5.199892 -12.88862 11.17754 1.667981 -0.1176266 8.285898 0.6160007 13.04825 -6.991244 2.587859 20.32658 -0.1300514 -2.937279 -22.40026 5.423129 -11.51545 -28.41416 9.811526 104.571 31.83501 -17.70404 -0 0 13.76707 -12.31232 4.518891 9.405207 -3.477368 -22.35465 -7.395791 -80.75292 11.50613 27.39124 0 0 -40.87655 1.780754 8.839145 12.76889
